<svg width="100%" height="100%" viewBox="0 0 271 273" version="1.1" style="fill-rule:evenodd;clip-rule:evenodd;stroke-linecap:square;stroke-miterlimit:1.5;"><path d="M268.63,229.807l-228.489,0l-38.178,40.615l228.489,0l38.178,-40.615Z" style="fill:#4caf50;stroke:#8bc34a;stroke-width:2.18px;"/><path d="M268.63,225.823l-228.489,-0l-38.178,40.615l228.489,-0l38.178,-40.615Z" style="fill:#4caf50;stroke:#8bc34a;stroke-width:2.18px;"/><path d="M268.63,221.838l-228.489,-0l-38.178,40.615l228.489,-0l38.178,-40.615Z" style="fill:#4caf50;stroke:#8bc34a;stroke-width:2.18px;"/><path d="M268.63,217.853l-228.489,-0l-38.178,40.615l228.489,-0l38.178,-40.615Z" style="fill:#4caf50;stroke:#8bc34a;stroke-width:2.18px;"/><path d="M268.63,213.868l-228.489,0l-38.178,40.615l228.489,0l38.178,-40.615Z" style="fill:#4caf50;stroke:#8bc34a;stroke-width:2.18px;"/><path d="M268.63,209.883l-228.489,0l-38.178,40.615l228.489,0l38.178,-40.615Z" style="fill:#4caf50;stroke:#8bc34a;stroke-width:2.18px;"/><path d="M268.63,205.898l-228.489,0l-38.178,40.615l228.489,0l38.178,-40.615Z" style="fill:#4caf50;stroke:#8bc34a;stroke-width:2.18px;"/><path d="M268.63,201.914l-228.489,-0l-38.178,40.615l228.489,-0l38.178,-40.615Z" style="fill:#4caf50;stroke:#8bc34a;stroke-width:2.18px;"/><path d="M142.639,214.41c10.336,0 15.438,3.5 11.386,7.811c-4.052,4.311 -15.734,7.811 -26.07,7.811c-10.337,-0 -15.439,-3.5 -11.387,-7.811c4.052,-4.311 15.734,-7.811 26.071,-7.811Z" style="fill:#8bc34a;"/><path d="M268.63,197.929l-228.489,-0l-38.178,40.615l228.489,-0l38.178,-40.615Z" style="fill:#4caf50;stroke:#8bc34a;stroke-width:2.18px;"/><path d="M142.639,210.426c10.336,-0 15.438,3.499 11.386,7.81c-4.052,4.311 -15.734,7.811 -26.07,7.811c-10.337,-0 -15.439,-3.5 -11.387,-7.811c4.052,-4.311 15.734,-7.81 26.071,-7.81Z" style="fill:#8bc34a;"/><path d="M268.63,193.944l-228.489,-0l-38.178,40.615l228.489,-0l38.178,-40.615Z" style="fill:#4caf50;stroke:#8bc34a;stroke-width:2.18px;"/><path d="M142.639,206.441c10.336,-0 15.438,3.5 11.386,7.81c-4.052,4.311 -15.734,7.811 -26.07,7.811c-10.337,-0 -15.439,-3.5 -11.387,-7.811c4.052,-4.31 15.734,-7.81 26.071,-7.81Z" style="fill:#8bc34a;"/><path d="M268.63,189.959l-228.489,0l-38.178,40.615l228.489,0l38.178,-40.615Z" style="fill:#4caf50;stroke:#8bc34a;stroke-width:2.18px;"/><path d="M142.639,202.456c10.336,-0 15.438,3.5 11.386,7.811c-4.052,4.31 -15.734,7.81 -26.07,7.81c-10.337,0 -15.439,-3.5 -11.387,-7.81c4.052,-4.311 15.734,-7.811 26.071,-7.811Z" style="fill:#8bc34a;"/><path d="M268.63,185.974l-228.489,0l-38.178,40.615l228.489,0l38.178,-40.615Z" style="fill:#4caf50;stroke:#8bc34a;stroke-width:2.18px;"/><path d="M142.639,198.471c10.336,0 15.438,3.5 11.386,7.811c-4.052,4.31 -15.734,7.81 -26.07,7.81c-10.337,0 -15.439,-3.5 -11.387,-7.81c4.052,-4.311 15.734,-7.811 26.071,-7.811Z" style="fill:#8bc34a;"/><path d="M268.63,181.989l-228.489,0l-38.178,40.615l228.489,0l38.178,-40.615Z" style="fill:#4caf50;stroke:#8bc34a;stroke-width:2.18px;"/><path d="M142.639,194.486c10.336,0 15.438,3.5 11.386,7.811c-4.052,4.311 -15.734,7.81 -26.07,7.81c-10.337,0 -15.439,-3.499 -11.387,-7.81c4.052,-4.311 15.734,-7.811 26.071,-7.811Z" style="fill:#8bc34a;"/><path d="M268.63,178.005l-228.489,-0l-38.178,40.615l228.489,-0l38.178,-40.615Z" style="fill:#4caf50;stroke:#8bc34a;stroke-width:2.18px;"/><path d="M142.639,190.501c10.336,0 15.438,3.5 11.386,7.811c-4.052,4.311 -15.734,7.811 -26.07,7.811c-10.337,-0 -15.439,-3.5 -11.387,-7.811c4.052,-4.311 15.734,-7.811 26.071,-7.811Z" style="fill:#8bc34a;"/><path d="M268.63,174.02l-228.489,-0l-38.178,40.615l228.489,-0l38.178,-40.615Z" style="fill:#4caf50;stroke:#8bc34a;stroke-width:2.18px;"/><path d="M142.639,186.517c10.336,-0 15.438,3.499 11.386,7.81c-4.052,4.311 -15.734,7.811 -26.07,7.811c-10.337,-0 -15.439,-3.5 -11.387,-7.811c4.052,-4.311 15.734,-7.81 26.071,-7.81Z" style="fill:#8bc34a;"/><path d="M95.567,62.928l18.541,19.724l-10.595,11.27l19.865,7.045l-19.865,21.132l-31.783,-33.812l23.837,-25.359Z" style="fill:#4caf50;"/><path d="M164.432,62.928l-7.946,-25.36l-10.595,11.271l-22.513,-23.95l59.594,-21.133l-18.54,59.172Z" style="fill:#4caf50;"/><path d="M182.972,122.099l-59.594,-21.132l22.513,-23.951l10.595,11.271l7.946,-25.359l18.54,59.171Z" style="fill:#c10000;"/><path d="M123.378,24.889l-19.865,7.044l10.595,11.271l-18.541,19.724l-23.837,-25.36l31.783,-33.812l19.865,21.133Z" style="fill:#c10000;"/><path d="M123.378,24.889l22.513,23.95l10.595,-11.271l7.946,25.36l-7.946,25.359l-10.595,-11.271l-22.513,23.951l-19.865,-7.045l10.595,-11.27l-18.541,-19.724l18.541,-19.724l-10.595,-11.271l19.865,-7.044Z" style="fill:#7450b0;"/></svg>